<svg xmlns="http://www.w3.org/2000/svg" viewBox="0 0 120 120"><ellipse cx="60" cy="65" rx="42" ry="38" fill="#8b5cf6"/><path fill="#8b5cf6" d="m22 35 13-25 13 22z"/><path fill="#c4b5fd" d="m28 33 8-15 7 14z"/><path fill="#8b5cf6" d="m72 32 13-22 13 25z"/><path fill="#c4b5fd" d="m77 32 7-14 8 15z"/><ellipse cx="45" cy="58" rx="9" ry="10" fill="#fff"/><ellipse cx="46" cy="59" rx="5" ry="6" fill="#1e1b4b"/><circle cx="48" cy="56" r="2" fill="#fff"/><ellipse cx="75" cy="58" rx="9" ry="10" fill="#fff"/><ellipse cx="74" cy="59" rx="5" ry="6" fill="#1e1b4b"/><circle cx="76" cy="56" r="2" fill="#fff"/><ellipse cx="60" cy="72" rx="5" ry="3.5" fill="#f472b6"/><path d="M55 75q5 7 5 0 0 7 5 0" fill="none" stroke="#f472b6" stroke-width="1.5" stroke-linecap="round"/><path stroke="#c4b5fd" stroke-width="1.2" stroke-linecap="round" d="m15 65 23 3M15 72h23M82 68l23-3M82 72h23"/></svg>